<svg xmlns="http://www.w3.org/2000/svg" viewBox="0 0 618.33 363.89">
  <defs>
    <style>
      .a {
        fill: #bbc6d7;
      }

      .b {
        fill: #053868;
      }

      .c {
        fill: #ca002d;
      }

      .d {
        fill: #8298b5;
      }
    </style>
  </defs>
  <g>
    <path class="a" d="M618.33,363.89H418.58V164.15H618.33V363.89Z"/>
    <g>
      <path class="b" d="M262,178.45c.47,27.41,17.74,38.72,38,38.72,14.53,0,23.51-2.54,30.88-5.54l3.68,14.3c-7.15,3.22-19.59,7.14-37.31,7.14-34.13,0-54.87-22.82-54.87-56.23,0-33.88,20.06-60.38,52.55-60.38,36.41,0,45.86,32,45.86,52.53a52.25,52.25,0,0,1-.69,9.68Zm59.23-14.53c.22-12.67-5.3-33-27.88-33-20.74,0-29.5,18.9-31.11,33Z"/>
      <path class="b" d="M365.9,149.4c0-11.73-.24-21-.92-30.19h18l1.14,18.22h.46c5.54-10.37,18.45-20.75,36.87-20.75,15.44,0,39.42,9.22,39.42,47.47v66.6H440.56V166.47c0-18-6.68-33.19-25.8-33.19-13.14,0-23.51,9.46-27.19,20.74a29.57,29.57,0,0,0-1.39,9.45v67.28H365.9V149.4Z"/>
      <path class="b" d="M572.38,204A184.39,184.39,0,0,0,574,230.75H555.8l-1.87-14.06h-.68c-6,8.77-18.2,16.6-34.1,16.6-22.58,0-34.11-15.89-34.11-32,0-27,24-41.73,67.06-41.49v-2.3c0-9.21-2.53-26-25.36-25.81-10.59,0-21.42,3-29.27,8.28l-4.59-13.58c9.21-5.77,22.81-9.69,36.86-9.69,34.35,0,42.64,23.27,42.64,45.64V204Zm-19.81-30.18c-22.14-.48-47.25,3.44-47.25,25.11,0,13.35,8.75,19.36,18.9,19.36,14.74,0,24.19-9.23,27.41-18.66a20.78,20.78,0,0,0,.94-6.47V173.85Z"/>
    </g>
    <path class="c" d="M346.16,25.48c.48,3.81-1.46,8.68.72,11.29-.24,1.56-3.15,2.26-3.4,3.82l2.68.52-8.77,6.26c.74,1.22,2.94.52,4.39.69L315.5,69.28l.73.68,18.49-11.81c-8,5.91-16.78,14.43-26.28,16.86L286.55,88.74c-.74-3.31,10.7-8.87,15.82-15-7.32.18-9.26,5.22-15.82,8-2.44,4.17-9.25,4.87-14.13,8.87.49-.53-.48-.88-.73-1.21-14.11,3.64-26,10.61-39.41,14.94,30.91-30.76,78.62-54.32,98.62-87.3,3.23-7.14-5.3-8.2-.3-9.25C342.77,9.73,343.73,18.69,346.16,25.48Z"/>
    <path class="d" d="M194.69,122.89C210.17,88.32,234.33,6.64,223.87.42c-13.39-8-131.19,99.86-145.55,244.84-14.42,9.83-27.25,24.23-46,22.81-.87-3.32-3.48-5.7-7-4.59-7,16-36.12,25.65-21,44,16.62.32,28.85-10.78,42-19.63,10.66-9.5,22.16-16.79,33.52-24.39,10,25.63,25.12,36.95,43.81,36.28,27.6-1,65.32-36.18,66.63-37.87s0-4.44,0-4.44c-.87-.78-2.76-.63-4,.06-13.13,7.1-26.12,14.87-40.68,18.52-17.29,4.57-40.27-4.23-33.6-36C154.46,202.57,179.83,156.05,194.69,122.89ZM111.08,219.1C123.64,128.51,196,35,203.48,37.74c10.9,4-20.88,78.6-39.53,111.42C142.93,186.14,110.89,220.44,111.08,219.1Z"/>
  </g>
</svg>
